<mxfile host="app.diagrams.net" modified="2024-05-03T05:19:52.127Z" agent="Mozilla/5.0 (Windows NT 10.0; Win64; x64) AppleWebKit/537.36 (KHTML, like Gecko) Chrome/124.0.0.0 Safari/537.36" version="24.3.1" etag="7rNpXYwkw20xuSj5HK2d" type="github">
  <diagram name="페이지-1" id="mnclQkpzLgW4obUv4SGT">
    <mxGraphModel>
      <root>
        <mxCell id="0" />
        <mxCell id="1" parent="0" />
      </root>
    </mxGraphModel>
  </diagram>
</mxfile>
